<svg xmlns="http://www.w3.org/2000/svg" viewBox="0 0 24 24" fill="none" stroke="currentColor" stroke-width="1.5" stroke-linecap="round" stroke-linejoin="round" class="lucide lucide-rocket">
  <defs>
    <linearGradient id="rocketGradient" x1="0%" y1="0%" x2="100%" y2="100%">
      <stop offset="0%" stop-color="#ff4d4d" />
      <stop offset="100%" stop-color="#f9cb28" />
    </linearGradient>
    <filter id="glow" x="-20%" y="-20%" width="140%" height="140%">
      <feGaussianBlur stdDeviation="1" result="blur" />
      <feComposite in="SourceGraphic" in2="blur" operator="over" />
    </filter>
  </defs>
  <path d="M4.5 16.5c-1.5 1.26-2 5-2 5s3.74-.5 5-2c.71-.84.7-2.13-.09-2.91a2.18 2.18 0 0 0-2.91-.09z" fill="#ff9955" stroke="#ff7733" />
  <path d="m12 15-3-3a22 22 0 0 1 2-3.95A12.88 12.88 0 0 1 22 2c0 2.72-.78 7.5-6 11a22.35 22.35 0 0 1-4 2z" fill="url(#rocketGradient)" stroke="#f97316" filter="url(#glow)" />
  <path d="M9 12H4s.55-3.03 2-4c1.62-1.08 5 0 5 0" fill="#ff9955" stroke="#ff7733" />
  <path d="M12 15v5s3.03-.55 4-2c1.08-1.62 0-5 0-5" fill="#ff9955" stroke="#ff7733" />
  <circle cx="16" cy="8" r="1" fill="white" stroke="none" />
  <path d="M9 21c-1.5 0-3-1.5-3-3" stroke="#ff7733" stroke-width="1" />
</svg>